<svg class="autograph" height="103" viewBox="0 0 424 103" width="424" xmlns="http://www.w3.org/2000/svg">
  <g fill="none" fill-rule="evenodd" stroke="#000" stroke-linecap="round" stroke-linejoin="round" stroke-width="3"
    transform="translate(2 2)">
    <path class="autograph__path"
      d="m87.3 52.6c0 0-6.5 16.4-27.6 36"/>" />
    <path class="autograph__path"
      d="m52.6 85.6c0 0 56.5-15.7 79.7-29.9" />
    <path class="autograph__path" d="m133.4 51.7c0 0-5 16.4-32.5 36" />
    <path class="autograph__path"
      d="m26.5 79.8c0 0 52.5-20.8 100.1-31.4" />
    <path class="autograph__path" d="m142.7 55.7c0 0 6.2-2.8 8.9 1.8 4.2 6.9 5.7 25.3-39 33.2" />
    <path class="autograph__path" d="m162 75.8c4.4-2.3 12.5-6.4 20.4-9.1 14.7-5 13.6 3.4 17.9 2.6 6.5-1.3 11.6-6 11.6-5.8 24.4-15.4 29.3-8.1 30-7.5 8.1 7.3 36.6-9.7 36.6-9.7" />
    <path class="autograph__path"
      d="m243.5 24.8c0 0-5-35.8 40.2 0.3 4.8 3.8 8.2 8.3 10.9 15.8 1.6 5.7-7.7 42.3-13.6 10.2" />
    <path class="autograph__path"
      d="m266 11.2c0 0 22.5 47.4 30.8 59.3" />
	      <path class="autograph__path"
      d="m299.6 59.6c0 0-0.3-3.5 2.2-0.9" />
	      <path class="autograph__path"
      d="m85.5 96.2c0 0 45.5-5.8 101.5-13.4 39.6-5.3 83.1-12.4 121.2-16.3 45.8-4.6 83.1-5.1 88.3 0.7" />
  </g>
</svg>
